<?xml version="1.0" standalone="no"?>
<!DOCTYPE svg PUBLIC "-//W3C//DTD SVG 20010904//EN"
 "http://www.w3.org/TR/2001/REC-SVG-20010904/DTD/svg10.dtd">
<svg version="1.0" xmlns="http://www.w3.org/2000/svg"
 width="150.000000pt" height="150.000000pt" viewBox="0 0 150.000000 150.000000"
 preserveAspectRatio="xMidYMid meet">
<metadata>
Created by potrace 1.14, written by Peter Selinger 2001-2017
</metadata>
<g transform="translate(0.000000,150.000000) scale(0.100000,-0.100000)"
fill="#000000" stroke="none">
<path d="M754 1429 c-3 -5 -2 -9 3 -10 4 0 17 -2 28 -5 45 -9 125 -12 125 -4
0 8 -37 16 -118 24 -18 2 -35 0 -38 -5z"/>
<path d="M607 1418 c-7 -5 -2 -8 13 -8 14 0 32 5 40 10 11 7 8 9 -13 8 -15 -1
-33 -6 -40 -10z"/>
<path d="M630 1403 c-42 -5 -92 -27 -110 -48 -34 -41 56 -63 140 -35 50 17 70
32 70 56 0 11 -44 36 -58 32 -4 0 -23 -3 -42 -5z"/>
<path d="M801 1377 c-10 -13 -8 -18 19 -32 61 -31 135 -15 98 21 -23 23 -100
30 -117 11z"/>
<path d="M985 1351 c-13 -23 110 -111 156 -111 31 0 32 21 3 51 -48 50 -142
86 -159 60z"/>
<path d="M393 1322 c-24 -17 -32 -27 -25 -34 11 -11 102 35 102 52 0 16 -41 6
-77 -18z"/>
<path d="M813 1280 c-12 -5 -30 -21 -39 -35 -14 -22 -15 -32 -5 -63 11 -37 11
-37 -35 -79 -39 -35 -52 -41 -73 -35 -49 13 -101 4 -137 -23 -54 -42 -69 -71
-69 -141 0 -58 -2 -63 -44 -109 -38 -42 -46 -46 -66 -37 -13 6 -36 7 -52 3
-25 -7 -31 -3 -64 43 -30 43 -34 55 -27 81 13 46 10 101 -7 115 -37 30 -82
-31 -91 -124 -10 -103 -14 -116 -31 -109 -14 6 -15 -3 -10 -70 3 -42 8 -81 12
-86 13 -23 21 -9 19 32 -3 55 22 147 41 149 8 0 19 1 25 2 5 1 23 -20 39 -46
23 -36 29 -55 25 -78 -11 -52 5 -99 47 -141 48 -48 90 -52 131 -14 37 34 46
94 27 162 -2 7 14 35 36 63 l40 50 62 -6 c52 -5 68 -3 101 16 66 37 100 128
72 195 -6 16 1 29 37 66 l44 46 44 -15 c55 -18 104 -10 139 23 40 37 35 79
-13 125 -49 47 -121 63 -178 40z"/>
<path d="M580 1258 c-71 -26 -77 -98 -9 -112 35 -7 94 17 108 43 10 18 -1 55
-20 67 -19 11 -52 12 -79 2z"/>
<path d="M355 1241 c-71 -44 -112 -121 -86 -160 25 -37 116 1 166 70 58 78 2
141 -80 90z"/>
<path d="M1113 1202 c-31 -5 -30 -36 2 -77 28 -37 71 -53 91 -33 30 31 -44
118 -93 110z"/>
<path d="M212 1153 c-13 -5 -44 -58 -48 -80 -5 -27 28 -11 49 24 32 55 32 69
-1 56z"/>
<path d="M1252 1147 c-9 -11 -5 -27 18 -74 37 -74 72 -110 88 -90 17 19 -2 78
-41 128 -37 48 -49 55 -65 36z"/>
<path d="M304 995 c-58 -24 -69 -126 -16 -146 48 -18 96 33 90 98 -4 49 -31
67 -74 48z"/>
<path d="M75 886 c-4 -26 -6 -49 -3 -51 8 -8 25 74 17 86 -4 7 -10 -7 -14 -35z"/>
<path d="M915 875 c-2 -5 -3 -127 -2 -270 l2 -260 45 4 c25 1 47 5 49 7 2 2 5
52 5 111 l1 108 135 0 135 0 0 -113 0 -113 50 3 50 3 0 264 0 265 -43 0 c-24
1 -47 -3 -50 -8 -3 -5 -5 -55 -5 -111 l0 -102 -137 -1 -138 0 2 109 c1 68 -2
109 -9 110 -56 5 -88 3 -90 -6z"/>
<path d="M120 715 c-12 -14 -9 -74 5 -107 4 -10 16 -18 26 -18 25 0 35 42 20
90 -12 42 -33 56 -51 35z"/>
<path d="M553 672 c-68 -53 -26 -164 62 -164 66 0 109 66 79 124 -29 56 -96
75 -141 40z"/>
<path d="M143 524 c-39 -16 50 -184 98 -184 43 0 21 83 -42 155 -31 35 -35 37
-56 29z"/>
<path d="M328 423 c-10 -3 -19 -9 -19 -14 -1 -5 -2 -15 -3 -21 -6 -40 71 -106
107 -92 58 22 -23 141 -85 127z"/>
<path d="M554 414 c-31 -15 -54 -50 -54 -82 0 -33 39 -80 84 -102 56 -27 116
-22 159 13 104 83 -62 234 -189 171z"/>
<path d="M356 247 c-17 -12 -17 -15 8 -44 47 -56 161 -93 173 -56 5 15 -49 67
-90 86 -54 25 -72 28 -91 14z"/>
<path d="M1100 208 c-37 -25 -50 -48 -27 -48 18 0 79 41 85 58 6 19 -22 14
-58 -10z"/>
<path d="M878 189 c-108 -36 -103 -94 7 -91 l40 1 -43 -10 c-54 -13 -48 -23 7
-14 23 4 41 12 41 20 0 7 14 18 31 25 40 17 68 58 48 71 -8 5 -18 9 -24 10
-42 6 -60 4 -107 -12z"/>
<path d="M632 172 c-27 -4 -40 -28 -24 -44 17 -17 88 -26 111 -14 18 10 19 14
9 29 -15 20 -63 34 -96 29z"/>
<path d="M606 80 c6 -6 49 -14 95 -17 75 -4 82 -3 65 10 -24 18 -177 25 -160
7z"/>
</g>
</svg>
